<svg version="1.1" id="Layer_1" xmlns="http://www.w3.org/2000/svg" x="0" y="0" viewBox="0 0 612 792" xml:space="preserve"><path class="st0" d="M566.8 201.2c-18.7-6-35.4-5.1-49.7 2.5-13.7 7.3-22.1 19.2-27 28.5-.9-1.3-1.8-2.6-2.6-4-.5-.7-1.1-1.3-1.8-1.8 4-9 5.7-19 4.4-29-1.8-14.4-9.1-27.3-20.6-36.2-6.8-5.3-14.6-8.8-23.5-10.5-5.7-1-11.5-1.1-17-.4-5.2-6.2-5.5-6.6-9.1-10.2l-2.4-2.4c14.4-20.1 6-42.6 5.9-42.9-.5-1.3-1.5-2.3-2.9-2.8s-2.7-.4-4 .2c-11.8 6.2-19.4 13.7-24.2 21.3-4.7-4-9.3-7.6-13.7-10.6-1.8-1.2-4.1-1.6-6.2-1l-1.6.4c-3.8 1-5.4 1.5-9.5 2.9-11.3-14.1-24-19-24.3-19-1.3-.4-2.7-.4-3.9.2-1.2.7-2.1 1.8-2.4 3-3 10.9-4.8 20.8-5.5 29.9-.3.1-.6.1-.9.3-12.3 5.5-23.5 11.5-36.6 19.2 1.2-13.8-.1-30.2-5.5-49.4-.4-1.3-1.2-2.4-2.4-3-1.2-.6-2.6-.7-3.9-.2-.5.2-48.1 18-41.3 88.8-.5.2-1 .5-1.5.9-3.2 2.4-4.9 3.7-6.8 5.2-1.7-3.7-3.8-7.1-6.3-10.4-8.9-11.5-21.8-18.8-36.2-20.6-14.5-1.8-28.7 2.1-40.1 11-11.5 8.9-18.8 21.8-20.6 36.2-1.8 14.5 2.1 28.7 11 40.1 4.1 5.4 9.2 9.8 14.8 13.2-5.4 5.4-8.2 8.7-12 12.7-1.6 1.8-3.4 3.7-5.6 6.2-.2.2-.2.5-.4.7-7.3-.2-14.1 2.6-18.6 7.9-3.8 4.5-5.1 10.4-4.1 16.6C81.3 325 68 343.3 67.4 344c-.3.4-.6.9-.8 1.4 0 .1-.1.1-.1.1-.7 1.7-.7 3.6-.2 5.3 0 .1 0 .1.1.1.3.9.8 1.6 1.4 2.4 0 0 0 .1.1.1L240.3 549c-1.2 1.5-2 3.2-2.2 5.5-.4 3.2.7 6 3.2 8.5l-20.5 107.2c-.4 2.2.1 4.5 1.6 6.2 1.4 1.7 3.5 2.7 5.8 2.7h20.5c-3.1 9.4-5.7 16.2-7.2 19.9-.5 1.3-.5 2.7.1 4 .5 1.3 1.5 2.3 2.9 2.9.7.2 1.3.4 2 .4 2.1 0 4-1.2 4.9-3.3 1.7-4.3 4.9-12.5 8.5-23.8h16.8c-.4 4.6-.5 7.1-.6 7.3-.5 2.9 1.4 5.6 4.3 6.1.3.1.7.1 1 .1 1 0 2.1-.3 2.9-1 1.2-.8 2-2 2.2-3.5.1-.4.4-4 .7-9.1H304l.1 16.8c0 2.9 2.4 5.2 5.3 5.2 1.5 0 2.7-.5 3.8-1.6 1-1 1.5-2.4 1.5-3.8l-.1-16.7H326c.4 5.1.7 8.8.8 9.3.4 2.6 2.6 4.3 5.1 4.3.3 0 .6-.1 1-.1 1.4-.2 2.6-1 3.4-2.1.8-1.2 1.1-2.6.9-3.9-.1-.4-.2-3-.6-7.4h16.8c3.7 11.3 6.8 19.6 8.5 23.9.9 2 2.9 3.2 4.9 3.2.7 0 1.3-.1 1.9-.4 1.3-.5 2.4-1.5 2.9-2.9s.5-2.7.1-4c-1.5-3.6-4.1-10.5-7.3-19.9h19.3c2.3 0 4.4-1 5.9-2.8 1.4-1.8 2-4.1 1.5-6.3l-17.3-79.8c18.3 5.1 23.5 9 25.7 23 1 6.3-.5 11.5-2 16.4-2.4 8-5.1 17.1 4.8 27.7.9 1 2.3 1.6 3.7 1.6h.2c1.3 0 2.6-.5 3.5-1.3 1-1 1.6-2.3 1.7-3.7.1-1.4-.4-2.7-1.4-3.8-5.7-6.2-4.6-10.2-2.4-17.6 1.6-5.5 3.7-12.4 2.3-21-3.5-22.1-16.3-27.1-37.1-32.6-.5-.2-1-.3-1.4-.5l-1.2-5.4c13.8 2.1 36.8 7.9 42.9 23.1 9.2 23.2 28.8 24.9 35.3 25.5h.5c2.7 0 5-2 5.2-4.8.2-2.9-1.9-5.5-4.8-5.7-9.7-.9-20.4-3.8-26.5-18.9-2.7-7-8.1-13-15.8-17.9 19.1-.5 32.1-4.1 38.5-10.9 4.4-4.6 6-10.7 4.5-17.6-1.5-7-5.5-11.8-11.6-14.2-7-2.8-17-2.1-29.8 2.2 8.9-10.9 14.3-22 14.6-30.2.1-1.8-.1-3.5-.5-5.2 27.6-26.2 88.6-88.7 123.7-161.1.1-.1 0-.1.1-.2.4-.7.5-1.5.7-2.3v-.4c.1-.8 0-1.6-.2-2.4 0-.1-.1-.1-.1-.2-.1-.4-.2-.7-.4-1-11.8-24.9-25.8-50.5-41.8-76.2 1.9.1 3.8.2 5.6.2 10.8 0 20.6-2.6 29.4-7.6 23.2-13.4 30.2-39.1 30.5-40.2.5-2.3-.9-4.9-3.4-5.7zm-70.4 40.5c3.5-7.8 11.3-21.9 25.4-29.5 10.7-5.7 23.2-6.8 37.2-3.2-2.7 6.8-10 21.5-24.4 29.8-10.4 6-22.8 7.6-36.9 5-.4-.7-.9-1.4-1.3-2.1zM428.3 161l.1-.1c4.8-.9 9.7-1 14.5-.2 2.6 2.1 13.1 10.9 15.4 22.9h-.1c-4.4 0-9 .7-13 2.1-5.5-10.9-13.2-19-18.6-23.8.5-.1 1.1-.4 1.7-.9zm22.8 42.6c-.4-2.6-1-5.2-2-8 6.5-2.1 20.4-4 30.7 10.4-.4 9.1-3.5 17.6-9.1 24.9-7.2 9.3-17.9 15.2-29.6 16.6 9.1-14.6 12.4-29.3 10-43.9zm-22.5 43.6c-7.1-1.2-13.8-4.1-19.5-8.5-9.3-7.1-15.1-17.6-16.6-29.2s1.7-23.2 8.8-32.4c3.6-4.6 8-8.4 13.1-11.2 4.9 3.7 22.6 18.2 26.2 39.6 2.4 13.4-1.6 27.3-12 41.7zm36.4-76.1c5.5 4.9 9.8 11 12.3 18-2.5-1.6-5.2-2.9-8.1-3.8-.5-4.8-1.8-9.6-4.2-14.2zm-164.2 63.4c-16.6-8.2-33.7-10.1-43.7-10.4 5.2-7.3 12.1-13.4 19.9-17.6 3.5-.1 24.3.2 37.6 13.2-6.9 5-11.4 11.1-13.8 14.8zm9.1 5.2c4.3-6.8 18-23.8 43.5-15.7 7.4 10.2 11.2 22.1 11.2 34.6 0 17.1-7.4 33.2-20.2 44.6-1.8-23.5-10.1-42.4-24.9-55.9-2.9-2.8-6.2-5.3-9.6-7.6zm14.3-25.3c-7.1-8-16-12.4-23.6-14.9 1.6-.1 3.2-.2 4.8-.2 12.9 0 25.4 4.3 35.7 12-6-.1-11.6 1-16.9 3.1zm9.9 95.9c-8.8 4.9-18.8 7.5-28.8 7.5-32.7 0-59.3-26.6-59.3-59.3 0-8.1 1.6-16 5.1-23.8 6.3-.2 39.1-.1 61.2 20.3 13.9 12.7 21.2 31.2 21.8 55.3zm35.5 41.2c-2.1.2-4.3.3-6.4.3-24.9 0-39.4-15.2-45.2-23.1 12.6-4 23.5-3.8 32.5.7 10.6 5.3 16.4 15.6 19.1 22.1zm-74.7-22.6c-5.8 7.7-20.2 22.9-45.2 22.9-2.1 0-4.3-.1-6.4-.3 2.7-6.3 8.4-16.5 18.9-21.8 9.1-4.5 20-4.8 32.7-.8zm-75.8-137c.1.3.1.6.2.9 1.4 5.4 1.8 11 1.1 16.6-1.5 11.6-7.4 22-16.6 29.2-5.7 4.4-12.4 7.4-19.5 8.5-10.3-14.1-14.4-28.2-12.1-41.8 3.5-21.2 21.3-35.9 26.2-39.6 5.1 2.9 9.5 6.6 13.1 11.3 3.6 4.6 6.1 9.6 7.6 14.9zm-35.2 57l.1.3-.1-.3zm-40.1-63.6c-2.9.9-5.5 2.1-8.1 3.8 2.5-7 6.6-13.2 12.3-18-2.4 4.6-3.8 9.4-4.2 14.2zm24.1.5c-4.1-1.4-8.7-2.1-13-2.1h-.1c2.4-12.2 12.8-21 15.5-23 4-.7 8.2-.7 12.3-.1 1.5.2 3.1.5 4.8.9-5.5 4.5-13.8 12.9-19.5 24.3zm-4.1 9.8c-.9 2.8-1.5 5.4-2 8-2.4 14.6.9 29.3 10 43.9-11.7-1.3-22.4-7.4-29.6-16.6-5.5-7.1-8.7-15.6-9.1-24.9 10.3-14.4 24.2-12.4 30.7-10.4zm107.5 163.2c14.6-5.1 24.6-14.6 30.1-21.2l.9 108.8c-4.9 1.8-9 3.4-12.1 4.6-3.9-33.6-10.2-64.6-18.9-92.2zm41.5 83.6l-.8-104.6c6.1 7.3 15.8 16 29.7 20.9-7.5 24-13.3 50.6-17.3 79.1-4.1 1.7-8 3.2-11.6 4.6zm81.5-297.5c-1-10.1.7-27.7 21.5-41 4.2 23.3-12.8 36.1-21.5 41zm-59.5-20c.4-8.2 1.5-17.1 3.9-27.1 7.3 4.3 12.9 9.6 17.1 15.7.1.4.1.9.3 1.3.5 1.6 1.6 2.9 2.9 3.8 14.9 26.1 9.5 61.2 6.5 75.1-11.1-7.5-31.3-26.5-31-65.1.4-1.2.5-2.5.3-3.7zm-60.6-27.2c14.8 60.6-13 87.1-26.8 96-14.1-64.1 13.3-88.3 26.8-96zm-43.1 98.5c2.6-2.1 4.2-3.4 5.9-4.6.7 3.5 1.5 7.1 2.4 10.9.4 1.4 1.3 2.6 2.6 3.2.7.4 1.4.5 2.1.5.7 0 1.3-.1 2-.4.4-.2 28.1-13 38.3-48.8h.1c1.3 0 2.7-.4 3.9-1.1 13.6-8.3 24.9-14.5 36.6-20.1 2.9 52 41.3 69.6 41.8 69.9.6.2 1.3.4 2 .4s1.5-.1 2.1-.5c1.3-.7 2.3-1.8 2.6-3.2 10-39.6 5.1-66.4-3.8-84.3 1.1-.4 2.1-.7 3.3-1 3.7 2.6 7.6 5.7 11.5 9.2.5.4 1.2.7 1.8 1-3.7 14.2-.4 25.9-.3 26.2.4 1.3 1.4 2.4 2.6 3 .7.3 1.3.4 2 .4s1.3-.1 2-.4c5.6-2.5 10.3-5.4 14.3-8.4l2.1 2.1c1.8 2 2.7 2.8 4 4.3-7.7 3.5-14.6 8.8-20.1 15.9-18.3 23.5-14.1 57.6 9.1 76-18.2 20.7-33.8 45.4-46.2 73.7-.2-.1-.4-.2-.7-.4-3.4-1.7-7.1-2.9-11-3.8 19.3-13 30.7-34.5 30.7-57.7 0-38.5-31.3-69.8-69.8-69.8-11.1 0-21.8 2.6-32.1 7.9-23.2 12.1-37.7 35.9-37.7 62 0 23.8 11.8 45.4 31.6 58.4-3.5.8-6.6 2-9.6 3.5-.2.1-.4.2-.5.3-12.4-28.4-28-53.2-46.3-74 11.2-8.9 18.4-21.6 20.2-35.9.6-4.9.5-9.6-.1-14.3.4 0 .5 0 .6-.1zm-68.8 61.9c.4-.4.7-1 1-1.5 4.4 1.2 9 1.8 13.7 1.8 8.6 0 17.1-2.1 24.8-6 18.5 20.6 34 45.5 46.5 74.3-12.8 11.3-16.8 27.1-17 27.8-.4 1.4-.1 2.9.7 4.1.8 1.2 2.1 2.1 3.5 2.4 9 1.6 17.4 1.8 25.7.4 8.4 26.6 14.6 56.5 18.5 88.8-6-2.4-12.1-4.8-18.2-7.1-5.9-15.5-13-30.9-21.3-45.7-6.8-12.1-12.6-20.7-15.7-25.2 2.2-3 3.3-6.4 3.4-10.1.1-12.4-12.1-26.1-17-31.2 3.6-16.5-3.2-46.3-17.5-60.7-9.1-9.1-20.3-11.2-31.5-6-6.2 2.9-10.3 7.6-11.8 13.9-1.2-1-2.4-1.9-3.7-2.7.6-.7 1.2-1.3 1.8-2 4.1-4.9 7-8.1 14.1-15.3zM217 361.8c0 2.1-.7 3.7-2.2 5.1-1.5 1.3-2.9 1.8-4.7 1.6-5.8-.7-13.5-8.1-19-15.1l13.8-13.3c6 6.6 12.1 15.5 12.1 21.7zm-85.3-81.1c.5.1 1.2.2 1.7.4.9.4 1.8.7 2.7.8 6.6 2.5 12.9 8.9 18 18.7l.3.4c3.1 6.2 7.5 12.9 13 20-8.5-3.7-17.6-6.2-25.7-7.3l-.5-.1c-9.5-1.5-16.5-7.6-20.2-13.7.1-2.1-.8-4.2-2.4-5.7-.7-2.7-.9-6.3 1.5-9.3 2.3-2.7 5.9-4.3 9.8-4.3.7.1 1.2.1 1.8.1zm2.5 42.9c1.6 0 3.3.1 5.1.3.4.1.6.1.7.1 17 2 37.9 11.8 44.8 21l-3.8 3.8c-3.5.8-18.4 4-32.9 4-11.8 0-20.2-2.1-25-6.1-3.5-3-5-7.1-4.5-12.8.2-2.1.7-7.7 9.5-9.6 1.8-.5 3.8-.7 6.1-.7zm6-1.5zm59.5 8.4l-4.9 4.8c-13.5-13-37.1-40.1-34.8-54.5.5-3.2 2.4-5.5 6.1-7.3 7.3-3.5 13.5-2.2 19.6 3.8 12.6 12.8 17.9 42.3 14 53.2zm-84.6-21c1.7 2.1 3.6 4.1 5.7 5.9-7.6 3.1-12.1 9.1-12.8 17.4-.8 9.2 2 16.5 8.2 21.8 6.8 5.7 17.6 8.5 32.2 8.5 14 0 27.9-2.7 33.9-4 4.6 6 15.3 18.5 26.6 19.8 2.4.3 4.6.1 6.8-.7 3 4.3 8.6 12.7 15 24.1 6.4 11.5 12.1 23.2 17.1 35.2-12.9-5.2-25.7-10.7-38.4-16.3 4-1 8.1-2.2 12.1-3.7 1.5-.5 2.7-1.8 3.2-3.4.5-1.5.2-3.2-.7-4.6-.4-.6-39.9-56.8-101.8-33.8-14.3-9-27.4-18.5-38.8-28.4 5.6-6.7 16.1-19.9 31.7-37.8zm19.3 73.7c38.8-10.1 65.7 14 76.7 26.8-6.3 1.8-12.6 3-18.6 3.5-20.4-9.5-40-19.6-58.1-30.3zm195.1 101.9c21.7 8.1 42.4 15.9 60.6 23.2-24.6 24.6-37 40.9-37.6 41.6-1.3 1.8-1.8 4-1.3 6.1l.2 1c-31.8 8.6-77.3 4.8-94.4 2.9l1.6-8.3c.4-2.3-.2-4.6-1.8-6.3L124 394.5c61 36.6 139.3 65.9 205.5 90.6zm73.7 78.7c-10.4 0-21-.9-28.8-1.8.5-.4 1.2-.7 1.7-1 1.1-.6 2.1-1.2 3.2-1.8 26-14.9 46-21.3 55.1-17.7 2.8 1.1 4.4 3.2 5.2 6.8.7 3.4.2 5.9-1.8 8-4.8 4.9-16.8 7.5-34.6 7.5zm5.4-52.6c.4-.4 1.4-1.2 2.9-2.6-3.7 11.3-16.2 27.7-34.3 39.6-2.5 1.4-5 2.9-7.5 4.4 6.6-8 19.5-22.8 38.9-41.4zM237 664l17.7-92.5c9 1 26.5 2.7 46.1 2.7 17.5 0 36.6-1.3 53-5.7l20.7 95.3-137.5.2zm165-167c-19.9-8.2-42.9-16.8-67.3-25.9-9-3.4-18.3-6.8-27.7-10.4 43.2-16.3 149.3-58.2 207.3-96.5-40.7 66-97.9 119.7-112.3 132.8zm25.3-219.6c6-6 12.3-7.3 19.6-3.8 3.7 1.8 5.6 4 6.1 7.3 2.3 14.5-21.3 41.5-34.8 54.5l-5-4.9c-3.7-11.2 1.6-40.4 14.1-53.1zm18.2 43.6c5.7-7.2 10.1-13.9 12.9-19.8l.4-.6c6.3-11.9 14.3-19 22.5-19.8.5-.1 1.1-.1 1.6-.1 4 0 7.6 1.5 9.8 4.3 3.1 3.7 1.9 8.7 1 11.2-2.6 7.1-10.6 15.5-22.3 17.4-8.3 1.1-17.4 3.7-25.9 7.4zm28.2 2.8c4.3-.4 8.2-.4 11.3.3 8.8 1.8 9.3 7.4 9.5 9.6.5 5.7-1 9.8-4.5 12.8-4.8 4-13.2 6.1-25 6.1-14.3 0-28.9-3.1-32.9-4l-3.8-3.8c6.8-9 28-19 44.6-21 .1.1.3.1.8 0zm-77.8 38c0-6.2 6-15.1 12.1-21.8l13.8 13.3c-5.4 7-13.1 14.4-19 15.1-1.8.2-3.2-.2-4.7-1.6-1.5-1.3-2.1-2.9-2.2-5zm13.9 40.3c9.8-8.8 24.7-18.8 44-20.8-14.2 7.1-29.1 14.1-44 20.8zm63.2-30.8c-4.1-.7-8.2-1-12.1-1-44.9 0-71.8 39-72.1 39.4-.4.6-.7 1.3-.8 2.1-4.6 2-9.1 4-13.7 5.9 2.6-5.1 5.2-10.2 7.9-15.1 6.3-11.3 12-19.7 15-24.1 2.2.7 4.5 1 6.8.7 11.3-1.3 22.1-13.8 26.6-19.8 7.1 1.5 20.4 4 33.9 4 14.6 0 25.4-2.9 32.2-8.5 6.2-5.2 9-12.6 8.2-21.8-.7-8.4-5.1-14.3-12.8-17.4 5.2-4.3 9.3-9.9 11.4-15.5 3-8.2 2.1-16-2.7-21.8-4.9-5.8-12.6-8.8-20.7-7.9-4.1.4-10.4 2.1-17 7.7-1.3-6.1-5.4-10.9-11.8-13.9-11.2-5.3-22.4-3.2-31.5 6-14.3 14.3-21 43.7-17.5 60.7-4.6 4.6-17.1 18.5-17 31.2 0 3.8 1.2 7.1 3.4 10.1-3.2 4.5-9 13.2-15.7 25.2-4.7 8.4-9 17.3-13.2 26.3-8.5 3.5-16.5 6.8-24 9.8 3.8-25.9 9.2-50.1 16.1-72 8.2 1.4 16.8 1.3 25.8-.4 1.4-.2 2.7-1.1 3.5-2.4.8-1.2 1-2.7.7-4.1-.1-.1-4-16.4-17-28 12.4-28.7 27.9-53.6 46.3-74.1 7.6 3.9 16.2 6 24.8 6 16 0 30.7-6.8 41.1-18.7 20.8 31.3 38.8 62.6 53.5 93.1-11.9 11.6-32.8 25-57.6 38.3z"/><path class="st0" d="M220.2 156.6c.7.3 1.3.4 2 .4s1.4-.1 2-.4c1.3-.6 2.3-1.7 2.6-3 .1-.4 11.8-39.3-30.5-61.5-1.2-.7-2.7-.7-4-.2-1.3.5-2.4 1.5-2.9 2.8 0 .4-15.2 41.2 30.8 61.9zm-23-52.7c20.5 13.2 22.4 30.9 21.3 41-22.2-12.6-23.1-30.6-21.3-41zM102.8 254.9c7.1 0 14.6-1.1 22.4-3.2 1.2-.4 2.3-1.2 2.9-2.3.7-1.2.8-2.5.4-3.8-.4-1.2-8.5-29-32.7-41.9-14.3-7.6-31-8.5-49.7-2.5-2.5.8-3.9 3.4-3.2 5.9.3 1.1 7.4 27 30.5 40.2 8.7 5.1 18.6 7.6 29.4 7.6zm-48.9-45.8c14.1-3.6 26.6-2.5 37.2 3.2 15.1 8.1 23.2 23.9 26.2 31.2-15 3.2-28.1 1.6-39-4.6-14.4-8.3-21.6-23-24.4-29.8z"/></svg>