<svg version="1.1" id="Layer_1" xmlns="http://www.w3.org/2000/svg" x="0" y="0" viewBox="0 0 852 792" xml:space="preserve"><path class="st0" d="M658.1 291.3c-2.4.2-4.4 2.2-4.4 4.7 0 2.6 2.1 4.8 4.8 4.8h6.6c1 .8 2.3 1.2 3.7 1.2 2 0 3.8-1 4.9-2.6l50.9-73.7c.1-.1.2-.2.2-.4 14.8-24.8 10.5-56.2-10.2-76.5-25.2-24.6-66.2-24.6-91.5 0-20.7 20.2-24.9 51.6-10.1 76.8l45.1 65.7zm-26.8-133.7c10.4-10.1 23.9-15.1 37.4-15.1s27.1 5 37.4 15.1c16.8 16.3 20.2 41.5 8.4 61.5l-45.9 66.3-45.7-66.2c-11.8-20-8.4-45.3 8.4-61.6z"/><path class="st0" d="M668.6 218c6.2 0 11.8-2.4 16.2-6.6 4.3-4.3 6.6-10 6.7-16.1 0-6.1-2.4-11.8-6.6-16.2-4.3-4.3-10.1-6.6-16.2-6.6h-.1c-6.1 0-11.8 2.4-16 6.6-4.3 4.3-6.7 10-6.7 16.1s2.3 11.8 6.6 16.1 10 6.7 16.1 6.7zm-7.5-30.4c2-2.1 4.7-3.2 7.6-3.2 2.9 0 5.6 1.1 7.6 3.2 2.1 2.1 3.2 4.8 3.2 7.6s-1.1 5.5-3.2 7.6c-2 2.1-4.8 3.2-7.6 3.2-2.9 0-5.5-1.1-7.6-3.2-2-2-3.2-4.8-3.2-7.6s1.1-5.6 3.2-7.6zM498.1 300.7h13.4c2.6 0 4.8-2.1 4.8-4.8s-2.1-4.8-4.8-4.8h-13.4c-2.6 0-4.8 2.1-4.8 4.8s2.2 4.8 4.8 4.8zM488.2 347.2h13.4c2.6 0 4.8-2.1 4.8-4.8s-2.1-4.8-4.8-4.8h-13.4c-2.6 0-4.8 2.1-4.8 4.8s2.2 4.8 4.8 4.8zM528.3 347.2h13.4c2.6 0 4.8-2.1 4.8-4.8s-2.1-4.8-4.8-4.8h-13.4c-2.6 0-4.8 2.1-4.8 4.8s2.2 4.8 4.8 4.8zM448.2 347.2h13.4c2.6 0 4.8-2.1 4.8-4.8s-2.1-4.8-4.8-4.8h-13.4c-2.6 0-4.8 2.1-4.8 4.8s2.1 4.8 4.8 4.8zM458 300.7h13.4c2.6 0 4.8-2.1 4.8-4.8s-2.1-4.8-4.8-4.8H458c-2.6 0-4.8 2.1-4.8 4.8s2.2 4.8 4.8 4.8zM538.2 300.7h13.4c2.6 0 4.8-2.1 4.8-4.8s-2.1-4.8-4.8-4.8h-13.4c-2.6 0-4.8 2.1-4.8 4.8s2.2 4.8 4.8 4.8zM568.4 347.2h13.4c2.6 0 4.8-2.1 4.8-4.8s-2.1-4.8-4.8-4.8h-13.4c-2.6 0-4.8 2.1-4.8 4.8s2.2 4.8 4.8 4.8zM618.3 291.2c-2.6 0-4.8 2.1-4.8 4.8s2.1 4.8 4.8 4.8h13.4c2.7 0 4.8-2.1 4.8-4.8s-2.1-4.8-4.8-4.8h-13.4zM785.6 420.7c.8 1.9 2.6 3 4.5 3 .5 0 1.2-.1 1.7-.3 2.4-1 3.7-3.7 2.7-6.2-1.6-4.3-3.6-8.5-5.7-12.6-1.2-2.3-4.1-3.2-6.4-2-2.3 1.2-3.2 4.1-2 6.4 1.9 3.8 3.7 7.7 5.2 11.7zM801.5 444.1c-.4-2.6-2.7-4.4-5.4-4-2.6.4-4.4 2.8-4 5.4.6 4.2 1 8.5 1.2 12.7.1 2.6 2.2 4.6 4.8 4.6h.1c2.6-.1 4.7-2.3 4.6-4.9-.2-4.6-.6-9.3-1.3-13.8zM578.3 300.7h13.4c2.6 0 4.8-2.1 4.8-4.8s-2.1-4.8-4.8-4.8h-13.4c-2.6 0-4.8 2.1-4.8 4.8s2.1 4.8 4.8 4.8zM419.6 341.8c.9.6 1.8 1 2.8 1 1.5 0 2.9-.7 3.8-2 1.5-2.1 1.1-5.1-1-6.6-2.9-2.1-5.1-5-6.3-8.4-1-2.4-3.7-3.7-6.2-2.7-2.4 1-3.7 3.7-2.7 6.2 1.9 4.9 5.2 9.3 9.6 12.5zM608.5 347.2h13.4c2.6 0 4.8-2.1 4.8-4.8s-2.1-4.8-4.8-4.8h-13.4c-2.6 0-4.8 2.1-4.8 4.8s2.2 4.8 4.8 4.8zM419.8 307.5c1.2 0 2.4-.5 3.4-1.4 2.6-2.6 5.7-4.2 9.2-5 2.6-.5 4.2-3 3.7-5.7-.5-2.6-3.1-4.2-5.7-3.7-5.3 1.2-10.1 3.8-14 7.6-1.8 1.8-1.8 4.9 0 6.7.9 1 2.1 1.5 3.4 1.5zM743.2 361.4c1.3-2.3.6-5.1-1.6-6.5-4-2.3-8.2-4.5-12.4-6.3-2.4-1.1-5.2 0-6.3 2.4-1 2.4 0 5.2 2.4 6.3 3.9 1.8 7.7 3.7 11.4 5.9.8.5 1.6.7 2.4.7 1.6-.1 3.2-1 4.1-2.5zM702.8 340.1c-4.5-.9-9.1-1.5-13.8-2-2.7-.2-4.9 1.7-5.2 4.3-.2 2.6 1.7 4.9 4.3 5.2 4.3.4 8.5 1 12.7 1.8.3.1.6.1 1 .1 2.2 0 4.2-1.5 4.6-3.8.6-2.6-1-5.1-3.6-5.6zM683.4 577c-1.6.1-3.4.1-5 .1h-8.2c-2.7 0-4.8 2.1-4.8 4.8s2.1 4.8 4.8 4.8h8.2c1.8 0 3.6-.1 5.4-.1 2.6-.1 4.6-2.3 4.6-4.9-.2-2.8-2.4-4.7-5-4.7zM661.9 337.7h-13.4c-2.7 0-4.8 2.1-4.8 4.8s2.1 4.8 4.8 4.8h13.4c2.7 0 4.8-2.1 4.8-4.8s-2.1-4.8-4.8-4.8zM720.8 569c-4 1.5-8 2.9-12.1 4-2.6.7-4 3.3-3.4 5.9a4.8 4.8 0 004.6 3.5c.4 0 .9-.1 1.2-.1 4.5-1.2 8.9-2.7 13.2-4.4 2.4-1 3.7-3.8 2.6-6.2-.9-2.4-3.6-3.6-6.1-2.7zM784.5 517.9c-2.3-1.3-5.2-.5-6.5 1.8-2.1 3.7-4.5 7.3-7 10.7-1.5 2.1-1.1 5.1 1 6.6.9.7 1.8 1 2.8 1 1.5 0 2.9-.7 3.8-2 2.7-3.7 5.3-7.6 7.6-11.6 1.3-2.3.5-5.2-1.7-6.5zM753.6 549.2c-3.2 2.8-6.6 5.5-10.1 7.9-2.1 1.5-2.7 4.5-1.2 6.6.9 1.3 2.4 2.1 4 2.1 1 0 1.8-.2 2.7-.9 3.8-2.6 7.5-5.4 11-8.5 2-1.7 2.2-4.7.5-6.7-2-2-5-2.2-6.9-.5zM796.9 480c-2.6-.5-5.1 1.2-5.5 3.8-.8 4.2-1.8 8.4-3.1 12.4-.8 2.5.7 5.1 3.2 6 .5.1 1 .2 1.4.2 2 0 3.9-1.3 4.5-3.4 1.3-4.4 2.5-9 3.4-13.5.3-2.6-1.4-5.1-3.9-5.5zM773.3 381.6c-3-3.5-6.2-6.9-9.6-10.1-1.9-1.8-4.9-1.7-6.7.2s-1.7 4.9.2 6.7c3.1 2.9 6 6 8.8 9.3 1 1.1 2.3 1.7 3.6 1.7 1.1 0 2.2-.4 3.1-1.2 2-1.6 2.3-4.6.6-6.6zM658.5 497.4c-.1-.4-.3-.7-.5-1-.2-.4-.4-.7-.7-1-.2-.3-.6-.5-1-.8l-.5-.5-52.5-30c-.9-.5-2-.8-3-.8H410.8c8.3-3.1 17.4-7.9 22.6-15.2 1-1.4 1.9-2.9 2.6-4.4 2.1-4.5 2.7-9.4 1.8-14.5-1.2-7.3-7.2-12.5-14.8-13-3.2-.1-10.7.5-19 8.8.4-8.5-1.1-15.6-4.3-20.7-3.8-6.2-10.1-9.5-17.9-9.1-7.9.3-11.8 4.3-13.7 7.6-4.2 7.4-2.9 19.9 3.6 37.1l-31-31.8c-12.1-15.1-22.6-27.4-34-39-.7-4.8-.8-8.5-.7-10.9 12 .2 25.7 3.5 32 5.5 2.1.7 4.3-.2 5.5-2.1l.2-.4c.9-1.8.5-4-.9-5.4-19.3-19.6-35.7-29.2-48.8-28.7-8.2.4-11.9 4.5-12.6 5.4-.4.4-.7 1-.9 1.6-1 3-1.8 6.2-2.4 9.4-2.9-2.3-6-4.6-9-6.8.8-1.2 1.5-2.4 2-3.6 3.5-7.5 3.8-16 .8-25.1-2.6-8.1-8.2-16.8-15.1-24-2.5-2.6-11.2-11-17.2-10.5-4.8.2-7.1 2.9-8 4.4-.4.7-.7 1.3-1 2.1-6.2-3.6-11.6-4.2-16.2-1.8-5.4 2.9-8.2 7.9-8.5 15.1-1.5-.4-2.9-.4-4.2-.2-1.8.3-5.1 1.4-7.1 5.8-.1.2-.2.5-.3.8-46.8-12.8-78.3-2.7-79.6-2.3-1.7.5-2.9 2-3.2 3.7-1.8 9.4-3.1 19.3-3.9 29.3-4.7-1.4-8-2.1-8.4-2.2-1.8-.4-3.8.4-4.9 1.9s-1.2 3.5-.3 5.2c2 3.5 6.1 9 12.4 16.7 0 10.9.6 24.2 1.6 35.5-8.9-1.9-13.7-2.4-13.8-2.4l-.5-.1c-1.8 0-3.3 1-4.2 2.5-.9 1.7-.7 3.8.5 5.3 1.8 2.3 8.1 9 16.7 15.1-.6.2-1.1.5-1.5.9-4 3-4.4 6.6-4.4 8.5 0 1.6.6 3.2 1.4 4.8-7.9 1.8-12.8 5.9-14.6 12.3-1.5 5.5.4 11.1 5.8 16.9-1 .5-1.8 1-2.6 1.8-1.4 1.3-3.6 4.2-2.8 9.1.4 2.7 2.8 5.9 5.8 8.8l-40.5 23c-.3.1-.4.4-.6.5-.4.2-.7.5-1 .8s-.4.6-.7 1c-.2.4-.4.7-.5 1l-.3 1.2c0 .2-.1.5-.1.7v157.5c0 3.3 2.7 6 6 6H653c3.3 0 6-2.7 6-6V499.2c0-.2-.1-.5-.2-.7-.1-.3-.1-.7-.3-1.1zm-28.2-4h-131l.4-.8.9-2.8-.4-1.1c-.1-.2-.1-.5-.4-.9l-.5-.8-.6-.6-2.9-2.1-.5.8-43.7-9.7h147l31.7 18zm-225.5-18.6l84 18.7h-84.9c1.2-6 1.6-12.2.9-18.7zm17.5-48.9h.4c3.1.1 5.4 2.1 5.9 5 .7 4.4-.1 8.1-2.7 11.6-6.2 8.4-19.8 12.9-29 15.1 8-23.3 18.5-31.7 25.4-31.7zm-28.1 67.5h-1.9c2.5-9 2.8-16 2.3-20.9l.4.1c.7 5.6 1 13.1-.8 20.8zm-17.7-85.3l.2-.5c.4-.9 1.5-2.6 5.7-2.7h.7c4 0 6.8 1.5 8.8 4.6 4.9 7.9 3.2 26.4-3.8 43.2-8.4-16.8-15.4-36.5-11.6-44.6zm5.8 56.3c-2.4 9.9-6 19.6-10.3 29H178.1c.7-.4 1.4-.9 2.1-1.3 25.7-17.2 52.4-35 86.4-50.5.9-.1 1.6-.5 2.3-1 3.8-1.7 7.6-3.4 11.5-4.9.6-.1 1.2-.2 1.6-.5.2-.1.4-.3.7-.4 7.3-3 14.6-5.7 22.2-8.2l.7.8-.5-.9c9.9-3.4 20.2-6.5 31.2-9.3l46 47.2zm-284.7-3.7c-.1-.5 0-.8 0-.8.6-.5 3.4-.8 6.3-.2 11.9 8 26.4 13.7 29.3 14.7 5 1.8 9.9 2.8 14.5 2.8-4.2 1.8-8.9 2.4-14.3 1.9-18-1.8-34.8-15.3-35.8-18.4zm44.7 27.7c12.5-1.6 21.9-8.9 28-21.8.5-1.1 1.1-2.3 1.5-3.5.1-.4.2-.7.3-1v-.1c8.4 1.5 16.9 4 25 7.4-7.6 4.9-14.9 9.8-22.1 14.6-5 3.4-9.6 6.4-14 9.3h-16.6c-.8-1.4-1.4-3.1-2.1-4.9zm32.5-39.2c.1-.7.1-1.4.1-2.1 13.5 6.2 26.2 10.8 35.4 13.9-1.2.8-2.4 1.5-3.8 2.4-10.1-4.9-21.2-8.5-32.2-10.5.2-1.2.3-2.3.4-3.4l.3.2-.2-.5zM148.2 382c4 4.5 8.5 7.9 13.1 10.2-5.1-.4-10.3-2.3-15.4-5.7-16.1-10.7-25.6-31.6-25-35 .2-.5.4-.8.4-.8 1-.2 4 1.1 6.4 3 7.3 13.4 18.3 25.9 20.5 28.3zm-19.6-29.2l.7-.9-.4.7-.3.2zm49-2.1c7.4 5.5 11.6 11.7 12.4 17.9.5 4.5-.7 8.8-3.7 12.3-2.6 3.2-6.5 5.1-11.4 5.2-6.5 0-13.5-3.7-19.6-10.5-17.1-18.9-27.5-38.3-24.3-45 .2-.4.4-.7.7-1 1.4-1.4 3.2-2 5.4-2 9.7-.1 26.5 12.6 40.5 23.1zM154 318.2s.3-.2 1-.3c1.3-.1 7.9 2.4 15.6 7.7 5.4 3.7 15.1 11.5 20.7 22 1 1.9 1.8 3.8 2.5 5.7-2.6-3.7-6-7.1-10.4-10.3-9.2-7-18.7-14.1-27.7-19-1.3-2.5-1.9-5.2-1.7-5.8zm9.6 83.7c.1.1.3.2.4.3 4.6 2.9 9.3 5.7 13.9 8.4-9.4-4.2-18.3-7.7-26.5-10.7 3.9 1.4 7.9 2 12.2 2zM177 399c4.1-1.8 8.2-4.2 12-7.4 11.8 11.5 28.3 25.7 54.7 39.8-17.6-7-42.4-17.9-66.7-32.4zm42.8 0l.2.1c3 4.5 6.3 8.8 9.9 13-15.8-10.3-26.8-20.1-34.3-27.4.5-.6 1-1.2 1.4-1.8 7.4 4.9 16.5 11.3 22.8 16.1zM202 374.7c1.5-3.5 2.4-7.1 2.6-10.6 1.3 5.4 3.1 10.8 5.2 16-2.7-2-5.4-3.8-7.8-5.4zm11.8-13.3c12.9 8.7 38.4 29.3 59.1 67-1.8.8-3.5 1.5-5.4 2.3-13.7-8-44-29.5-53.7-69.3zm30.3 80.4c-1.5.8-3 1.5-4.6 2.4-7.4-4.9-14.7-9.3-21.8-13.5 9.6 4.4 18.6 8.1 26.4 11.1zm85.1-32.8c-1.6.5-3.2.9-4.7 1.3-4.8-6.8-8.6-13.7-11.5-20.5 4.8 5.4 10 11.6 16.2 19.2zm-39.7-70.7c.7-.5 2.4-1.3 5.1-1.5 5.2-.3 14.3 2.1 28.4 13.7-12.6-2.2-27.1-3-36.5 1.8.6-4.5 1.6-9.2 3-14zm.1 23.4c1.6-1.2 4-2 7-2.6-.2 9.1 1.8 29 18.4 54-2.6.8-5.1 1.6-8 2.5-7.4-8.2-19.1-24.6-20.8-47.5.1-2.9 1.2-4.9 3.4-6.4zm-13.4-7.5c.1.1.3.2.4.4-.4 4.6-.5 9.1-.2 13.7v.1l.1.7c.6 8 2.4 15.9 5.1 23.5-4-5.2-7.7-10.4-11-15.7-9.3-14.7-12.6-25.3-13.4-28.2 2.1-1.4 4-2.9 5.7-4.5 4.9 3.3 9.3 6.7 13.3 10zM239.9 283c.1 0 .1-.1.2-.1 3.2.4 18.8 13.4 23.3 29.2 1 3.6 1.4 7 1 10.2-1-3.6-2.6-7.3-4.9-10.8-2.1-3.4-9.9-15.2-18.8-23.8-.6-1.7-.9-3.8-.8-4.7zm-.2.1zm-23.1 6.2c.5-1.2 1.3-2 2.4-2.6.4-.2 1-.4 1.6-.4 6.3 0 20 13.2 30.9 30.5 4.1 6.5 5.4 12.9 3.8 18-1.2 3.6-3.6 6.3-7 7.7-3.7 1.5-7.7 1.5-11.3 0-4.8-2.1-8.8-6.8-11.5-13.9-5.4-14.2-12.3-32-8.9-39.3zm-13.1 13.6c.1-.1.1-.2.1-.3.7.2 2.4 1 3.8 2.4 1.9 8.5 5.6 18 9.1 27.3 1.2 2.9 2.4 5.6 4 7.9-.7-.5-1.2-1.1-1.8-1.7-12.2-12.2-16.1-32.4-15.2-35.6zm-82.9 2.8c9-2.1 36.4-6.8 73.8 3.8 1.7 10.8 8.1 26 17.4 35.5 9.2 9.2 20 12.5 31.6 9.6l1.6.5-.9-.7c1.5-.4 3-.9 4.5-1.5 1.5 4.7 5.4 15.2 14 28.8 8.2 13 18.7 25.9 31.2 38.4-4 1.5-8 2.9-12 4.5-30.9-56.7-71-76.4-72.6-77.3-.7-.3-1.3-.4-2.1-.4-1 0-2 .3-2.8.9-.7.5-1.2 1.2-1.6 2-.8-2.3-1.8-4.5-3-6.8-11-20.5-37.6-35.8-46.1-34.6-5.1.8-7.3 3.8-8.2 5.5-.7 1.5-1.1 3.2-1 5.2-8.2-2.4-14.9-1.2-19.7 3.7-3 3-4.3 7.2-3.9 12.4-1.2-.5-2.5-1.1-3.9-1.6.9-9.4 2.1-18.6 3.7-27.9zm19.1 88.3c3.3 2.3 6.6 4 10 5.4-12.7-4.6-23.5-7.7-31.7-9.7-.7-6.8-1.2-14.8-1.5-22.6 4.9 9.3 13.1 20 23.2 26.9zm-24.3-50.8c-.7.5-1.4 1.2-1.9 2-1.1-1.4-2.1-2.7-3.2-3.9 1.6.5 3.3 1.2 5.1 1.9zm114.5 106.2c-2.9 1.6-5.7 3.2-8.7 5-11.6-3.6-29.1-9.6-47.8-18.6-2.4-7.7-7.6-14.2-15.4-19.3-9.3-6.1-22.8-10.1-35.8-10.6-5-2.4-9.7-5.7-13.3-8.7 22.7 5.2 68.9 18.8 121 52.2zm-72.5-21.2c-3.6-1.6-7.5-2.9-12.1-3.5-10.6-1.7-21.6-3.5-31.1-3.7-2.1-1.5-3.6-3.5-3.7-4 0 0 .1-.2.6-.6 2.9-1.8 25.8-2.1 41.7 8.2 1.7 1.1 3.3 2.3 4.6 3.6zM97 436.9c1.4-4.8 7.6-6.3 16.1-6.3 9.1 0 20.7 1.8 30.9 3.5 8.2 1.3 14.3 4.5 17.6 9.2 2.5 3.6 3.4 8 2.5 12.4-.8 4-3.3 7.4-7.1 9.6-5.3 2.9-12.6 2.9-20.4 0-23.9-8.8-41.6-21.6-39.6-28.4zm7.5 41.7c8.7 5.2 18.5 8.8 27.1 9.9l.4.1c.7 1.8 1.3 3.3 1.9 4.8H78.7l25.8-14.8zm542.4 172.3H62.1V505.4h584.8v145.5z"/><path class="st0" d="M301.8 615.6l46.1 26.6c1.8 1 3.8 1.5 5.7 1.5 1.9 0 3.9-.5 5.7-1.5l46.1-26.6c1.8-1 3.2-2.4 4.2-4.1 1-1.7 1.5-3.7 1.5-5.7v-53.2c0-2-.5-4-1.5-5.7s-2.4-3.2-4.2-4.1L359.3 516c-1.8-1-3.8-1.5-5.7-1.5s-3.9.5-5.7 1.5l-46.1 26.6c-1.8 1-3.2 2.4-4.2 4.1-1 1.7-1.5 3.7-1.5 5.7v53.2c0 2 .5 4 1.5 5.7 1 1.8 2.4 3.3 4.2 4.3zm1.9-63.1c0-.8.1-1.4.5-2 .3-.5.8-1 1.5-1.3l46.1-26.6c.6-.4 1.2-.5 1.9-.5s1.3.2 1.9.5l46.1 26.6c.6.4 1.1.9 1.4 1.3.3.5.5 1.2.5 2v53.2c0 .8-.1 1.4-.5 2-.3.5-.8 1-1.4 1.4l-46.1 26.6c-.6.4-1.2.5-1.9.5s-1.3-.2-1.9-.5l-46.1-26.6c-.6-.4-1.1-.9-1.5-1.4-.3-.5-.5-1.2-.5-2v-53.2z"/><path class="st0" d="M381.8 573c-.4.5-.7.9-1.2 1.3 3.3.9 6.3 2.5 8.8 4.8-2.4 2.3-5.5 3.8-8.8 4.8.4.4.7.9 1.2 1.3 1.3 1.6 2.4 3.4 3.5 5.2 4.8-1.8 9.1-4.8 12.3-8.9v-.1l.1-.1 1.7-2.3-1.7-2.3-.1-.1v-.1c-3.2-4.1-7.4-7.1-12.3-8.9-1.1 2-2.2 3.8-3.5 5.4zM358.4 606.1c-.9 3.3-2.5 6.3-4.8 8.8-2.3-2.4-3.8-5.5-4.8-8.8-.4.4-.9.8-1.3 1.2-1.6 1.3-3.4 2.4-5.1 3.5 1.8 4.8 4.8 9.1 8.9 12.3h.1l.1.1 2.3 1.7 2.3-1.7.1-.1h.1c4.1-3.2 7.1-7.4 8.9-12.3-1.8-1-3.5-2.1-5.1-3.5-.8-.5-1.2-.9-1.7-1.2zM309.8 581.4c3.2 4.2 7.4 7.1 12.3 9 1-1.8 2.1-3.5 3.5-5.2.4-.4.7-.9 1.2-1.3-3.3-.9-6.3-2.5-8.8-4.8 2.4-2.3 5.4-3.8 8.8-4.8-.4-.5-.7-.9-1.2-1.3-1.3-1.6-2.4-3.4-3.5-5.1-4.8 1.8-9.1 4.8-12.3 8.9v.1l-.1.1-1.7 2.3 1.8 2.1zM348.9 552.1c.9-3.3 2.5-6.3 4.8-8.8 2.3 2.4 3.8 5.5 4.8 8.8.4-.4.9-.8 1.3-1.2 1.6-1.3 3.4-2.4 5.1-3.5-1.8-4.8-4.8-9.1-8.9-12.3h-.1l-.1-.1-2.3-1.7-2.3 1.7-.1.1h-.1c-4.1 3.2-7.1 7.4-8.9 12.3 1.8 1 3.5 2.1 5.1 3.5.8.4 1.2.8 1.7 1.2z"/><path class="st0" d="M336.4 579.1c-3.4 2-6.5 4.6-9 7.7-4.9 6-7.6 13.8-6.5 21.6v.1l.4 2.8 2.8.4h.1c7.8 1.1 15.5-1.6 21.6-6.5 3-2.5 5.7-5.5 7.7-9 2 3.4 4.6 6.5 7.7 9 6 4.9 13.8 7.6 21.6 6.5h.1l2.9-.4.4-2.8v-.1c1.1-7.8-1.6-15.5-6.5-21.6-2.4-3-5.5-5.7-8.9-7.7 3.4-2 6.5-4.6 8.9-7.7 4.9-6 7.6-13.8 6.5-21.6v-.1l-.4-2.8-2.9-.4h-.1c-7.8-1.1-15.5 1.6-21.6 6.5-3 2.5-5.7 5.5-7.7 9-2-3.4-4.6-6.5-7.7-9-6-4.9-13.8-7.6-21.6-6.5h-.1l-2.8.4-.4 2.8v.1c-1.1 7.8 1.6 15.5 6.5 21.6 2.6 3.1 5.6 5.7 9 7.7zm4.8 20.2c-3.7 3-8.2 4.9-12.8 5.1.1-4.6 2.1-9.1 5.1-12.8 2.4-2.9 5.4-5.2 8.8-6.8 1.2 2.5 3.3 4.6 5.8 5.8-1.6 3.3-4 6.3-6.9 8.7zm7-20.2c0-3 2.4-5.5 5.4-5.5s5.5 2.4 5.5 5.5c0 3-2.4 5.4-5.5 5.4-3 .1-5.4-2.4-5.4-5.4zm25.7 12.4c3 3.7 4.9 8.2 5.1 12.8-4.6-.2-9.1-2.1-12.8-5.1-2.9-2.4-5.2-5.5-6.8-8.8 2.5-1.2 4.6-3.3 5.8-5.8 3.2 1.7 6.3 4 8.7 6.9zm-7.8-32.6c3.7-3 8.2-4.9 12.8-5.1-.1 4.6-2.1 9.1-5.1 12.8-2.4 3-5.4 5.2-8.8 6.8-1.2-2.5-3.2-4.5-5.8-5.8 1.7-3.3 4-6.4 6.9-8.7zm-24.9 0c2.9 2.4 5.2 5.5 6.8 8.8-2.5 1.2-4.6 3.3-5.8 5.8-3.4-1.5-6.4-3.9-8.8-6.8-3-3.7-4.9-8.2-5.1-12.8 4.7 0 9.2 2 12.9 5z"/></svg>