<svg version="1.1" id="Layer_1" xmlns="http://www.w3.org/2000/svg" x="0" y="0" viewBox="0 0 612 792" xml:space="preserve"><path class="st0" d="M579.7 300.8c-.6-1.2-1.7-2.2-3-2.6-34.5-8.7-54.6 11.9-59.2 17.5-2.7.4-7.2 1.4-13.5 3.6 23.2-24.7 14.6-40.4 14.2-41.2-1.2-2.1-4-2.9-6.2-1.8-35.1 18.5-34.8 47.1-34 54.6-9.3 4.9-20.3 11.5-32.9 20.1.4-.9.7-1.8 1-2.6 3-8.9 2-18.1-2.9-27.4-.6-1.1-1.6-1.9-2.8-2.3s-2.5-.2-3.6.4c-.9.5-20.9 19.6-26 40.7v-33.2c2.6-3.1 4.6-5.5 5.7-6.8 4.1 1.8 9 1.5 13.7-.9 3.8-2.1 7.2-5.3 9.6-9 1.2 2.2 2.8 4.1 4.6 5.7 1.5 1.5 3.4 2.6 5.2 3.5 5.5 2.6 11.3 2.1 15.7-1.2 4.9-3.8 6.8-9.8 5.4-16.5-.7-3.5-2.4-7-4.5-9.9 4.1-1 8-2.9 11-5.7 4.6-4.3 6.5-10.1 5-15.4-1.5-5.7-6-9.6-12.4-10.8-4.7-.9-9.9-.1-14.3 1.8.9-5.6-.1-11.3-2.8-15.8-3-5.1-8-7.9-13.2-7.6-5.9.3-10.7 4-13.5 10.2-1.8 4.3-2.4 9.1-2 13.5-4.5-1.8-9.3-2.3-14-1.2-6.1 1.5-10.6 5.7-12 11.1-1.4 5.5.4 11 4.9 15.2.3.2.6.5 1 .8 2.6 2.1 5.9 3.7 9.2 4.6-2.1 2.6-3.5 5.5-4.3 8.7-3.4-7.9-11.5-12.7-22.9-13.8 7.6-17.9 12.4-33.2 15.2-44.6.4.4.6.9 1 1.3s.7.8 1.2 1.2c3.5 3.2 8.1 4.5 12.5 3.4 5.5-1.5 9.4-6 10.7-12.3.6-2.9.6-6 .1-8.8 3.5.5 7 .2 10.2-1 5.5-2.1 9.3-6.2 10.1-11.3.9-5.4-1.5-10.4-6.4-13.6-3.4-2.2-7.5-3.4-11.5-3.5 2.4-4.3 3.5-9 2.9-13.6-.7-5.3-3.8-9.4-8.4-11-5.1-1.8-10.5-.4-15 3.8-2.9 2.7-5.1 6.2-6.3 9.9-2.9-2.7-6.5-4.6-10.4-5.2-5.8-1-11.2 1-14.3 5.1-3.5 4.6-3.8 10.4-.9 15.9 1.2 2.1 2.7 4.1 4.6 5.9.2.2.5.4.7.6-3.2 2-6 4.6-7.9 7.7-2.8 4.9-3 10-.5 14.2.7 1.1 1.5 2.1 2.4 2.9 2.7 2.5 6.5 3.7 10.9 3.4 2.3-.2 4.5-.7 6.6-1.6-2.3 10.2-10.8 33.7-17.8 51.2h-29.9c-3.3 0-6 2.7-6 6s2.7 6 6 6H381c17.6 0 17.6 8.8 17.6 11.7v23.5H44.8v-17.6c0-9.7 7.9-17.6 17.6-17.6h35.4c3.3 0 6-2.7 6-6s-2.7-6-6-6H62.4c-16.3 0-29.6 13.3-29.6 29.6V635c0 3.3 2.7 6 6 6h299.9c.1 0 .3-.1.5-.1.1 0 .3.1.5.1 2.6 0 4.8-1.8 5.6-4.1l61.2-60.7c2.4-.8 4.1-2.9 4.1-5.6 0-.2-.1-.4-.1-.5 0-.2.1-.4.1-.5v-73.3c13.9-6 26.8-9.9 38.5-12.1 15.2-.2 25.1 9.8 29.6 15.8-.8.6-1.6 1.2-2.3 2.1-5.5 6-5.1 15.5 1 21 6.1 5.6 15.5 5.2 21.1-.8 5.5-6 5.1-15.5-1-21-2.7-2.4-6-3.7-9.3-3.8-2.4-3.7-7.6-10.5-15.7-15.6 32.1-.9 50.9 9.6 51.2 9.9.1.1.2.1.2.1-.5 5.5 1.3 11.3 5.8 15.4 7.4 6.8 19 6.3 25.9-1.2 6.8-7.4 6.3-19-1.1-25.9-7.4-6.8-19-6.3-25.9 1.2-.5.6-1 1.2-1.3 1.8-3.5-1.8-14.2-6.9-31-9.4 15.9-10.1 25.4-10.4 27.4-10.4.4.5.9 1.1 1.5 1.6 3 2.7 6.8 4 10.8 3.8 3.8-.2 7.3-2 9.9-4.8 5.5-6 5.1-15.3-.8-20.7-6-5.4-15.2-4.9-20.7 1-2.6 2.9-3.8 6.5-3.8 10.1-6.7.7-19.8 4-38.4 18.1-18.5-.7-41.8 2-69.3 12.9 7.6-7.7 15.6-14.8 19.5-16.8 6.1 4.6 14.7 4 19.9-1.7 5.5-6 5.1-15.5-1-21-6.1-5.6-15.5-5.2-21 .8-3.7 4-4.6 9.6-3.2 14.5-2.7 2-9.5 7.1-16.3 13.6v-30.7c16.3-8.8 32.5-15.2 44-16.2-1 2.1-1.6 4.3-1.9 6.6-.7 5.5.9 10.3 4.4 13.5.4.4.8.7 1.2 1 4.6 3.4 10.5 3.5 16.2.5 3.8-2.1 7.2-5.3 9.6-9 1.2 2.2 2.8 4.1 4.6 5.7 1.5 1.5 3.4 2.6 5.2 3.5 5.5 2.6 11.3 2.1 15.7-1.2 4.9-3.8 6.8-9.8 5.4-16.5-.8-3.5-2.4-7-4.5-9.9 4.1-1 8-2.9 11-5.7 4.5-4.3 6.5-10.1 5-15.4-1.5-5.7-6-9.6-12.4-10.8-4.7-.9-9.9-.1-14.3 1.8.9-5.6-.1-11.2-2.8-15.8-3-5.1-8-7.9-13.2-7.6-5.9.3-10.7 4-13.5 10.2-1.8 4.3-2.4 9-2 13.5-4.5-1.8-9.3-2.3-14-1.2-6.1 1.5-10.6 5.7-12 11.1-1.4 5.6.4 11 4.9 15.2.3.2.6.5 1 .8.5.4 1.1.8 1.7 1.2-7.4 1.8-21.6 6.4-39.6 15.6v-14.8c19-6.4 27.9-22 27.9-22.3.7-1.2.7-2.6.2-4-.5-1.2-1.6-2.3-2.9-2.6-9-2.7-17.6-2.8-25.2-1.5v-1.3c15.4-12.6 29.3-22.7 41.3-30.9 48.4 20.7 67.3-4.1 68-5.2.8-1.1 1-2.4.7-3.8s-1.2-2.4-2.3-3c-12.3-6.5-24-8-34.3-7.3 20.9-10.7 32.4-13 35.7-13.4 40.4 17.7 59.6-19.6 59.8-19.9.9-1.4.9-2.9.3-4.2zM468 268.6c4.3.8 4.9 3.3 5.2 4.1.7 2.9-1.5 5.4-2.5 6.4-2.6 2.5-7.7 4.8-13.8 3.5.1-3.5-.7-6.8-2.6-9.6 2.5-3.2 8.9-5.2 13.7-4.4zm-14.6 23.9c3 1 7 5.5 8 10.8.4 2.3.5 5.4-2.1 7.4-2.1 1.6-4.8.8-6.2.1-3.3-1.5-7.1-5.7-7.9-12.4 3.3-1.1 6.1-3.2 8.2-5.9zm-19.1-40.7c1.3-2.9 3.2-4.6 5.5-4.6 2.4-.1 4 2 4.8 3.2 2.1 3.5 2.7 9.5-.2 15.4-.5-.1-1.1-.3-1.6-.4-2.7-.4-5.4 0-7.8.9-2.2-2.8-2.9-9.4-.7-14.5zm-1.7 29.6c.7-4.4 4.6-7.4 8.8-6.9 1.5.2 2.8.9 3.8 1.8.4.3.7.7 1 1 1.2 1.7 1.8 3.8 1.4 6-.7 4.4-4.6 7.4-8.8 6.9-1.9-.2-3.6-1.2-4.8-2.9-1.2-1.7-1.7-3.8-1.4-5.9zm-6 11.4s.1 0 0 0c.7.9 1.3 1.7 2.1 2.4 1.5 1.5 3.4 2.5 5.4 3.2 0 4.1-4 9.9-8.5 12.4-2.6 1.3-4.8 1.4-6.5.1-2.1-1.5-2-4.6-1.8-5.9.5-4.1 3.6-9.3 9.3-12.2zm-16.9-12.3c-2.4-2-3.4-4.3-2.7-6.6.7-3 3.9-4 5.2-4.4 3.5-.9 9-.2 13.7 4.2-1.1 1.9-1.9 4-2.3 6.3-.2 1.1-.2 2.3-.2 3.4h-.1c-3.4 1.5-9.7.2-13.6-2.9zm7.7-46.2c-.4 2-1.5 4.5-4 5.2-2 .5-3.6-.9-4.4-1.8-2-2.3-3.5-6.6-2-12.1 2.9.1 5.7-.6 8.2-2 1.8 2.1 3 6.5 2.2 10.7zm6.1-26.5c3-1.5 8.5-1 11.8 1.2 2.9 1.9 2.5 3.8 2.4 4.5-.2 1.7-1.8 3.2-4.1 4.1-2.8 1-7.3 1.2-11.4-1.5 1.2-2.6 1.6-5.5 1.3-8.3zm-8.8-24.1c2-1.8 3.8-2.4 5.6-1.8 1.6.6 2.2 2.5 2.4 3.6.5 3.4-1 8.2-5.2 12.1-.3-.2-.5-.4-.9-.7-2-1.2-4.2-1.8-6.5-2-.5-3 1.3-8.1 4.6-11.2zm-11.9 23.5c2-3.2 6-4.3 8.9-2.5 1.3.8 2.2 2 2.6 3.5.4 1.7.1 3.5-.9 5.1-2 3.2-6 4.3-8.9 2.5-1.3-.7-2.2-2-2.6-3.5-.4-1.7-.1-3.5.9-5.1zm-18.1-14.8c1.5-2.1 4.3-1.8 5.4-1.6 2.9.5 6.7 2.7 8.8 7.4-1.5 1.2-2.9 2.6-4 4.3-.5.8-.9 1.6-1.2 2.4-2.7 0-7.1-2.6-9.1-6.4-1.8-3.6-.4-5.5.1-6.1zm1.2 35.6c-3.4.2-4.3-1.2-4.6-1.8-1-1.7.1-4 .6-4.9 1.8-3 5.8-6 11.1-6.6.7 2.6 2 4.9 3.8 6.6-1.4 3-6.3 6.4-10.9 6.7zm97.4 280.3c.7-.7 1.5-1.2 2.4-1.5.5 0 1-.1 1.5-.2 1.5-.1 2.9.4 4.1 1.5 2.4 2.1 2.6 5.7.4 8-2.1 2.3-5.7 2.4-8 .2-2.3-2.1-2.5-5.7-.4-8zm52-20.9c3.4-3.7 9.1-4 12.9-.5 3.7 3.4 4 9.1.5 12.9-3.4 3.7-9.1 4-12.9.5-3.6-3.4-3.8-9.2-.5-12.9zm-4.2-37c2-2.3 5.5-2.5 7.7-.5s2.3 5.4.2 7.7c-1 1.1-2.4 1.8-3.8 1.8-1.5.1-2.9-.4-4-1.3-2.1-2-2.2-5.4-.1-7.7zm-94.2 2.3c2.1-2.3 5.7-2.4 8-.2 2.4 2.1 2.6 5.7.4 8s-5.7 2.4-8 .2c-2.3-2.1-2.5-5.7-.4-8zm75.7-53.8c4.3.8 4.9 3.3 5.2 4.1.8 2.9-1.5 5.4-2.5 6.4-2.6 2.6-7.7 4.8-13.8 3.5.1-3.5-.7-6.8-2.6-9.6 2.5-3.2 8.9-5.3 13.7-4.4zM498 422.8c3 1 7 5.5 8 10.8.4 2.3.5 5.4-2.1 7.4-2.1 1.6-4.8.8-6.2.1-3.3-1.5-7.1-5.7-7.9-12.4 3.4-1.1 6.2-3.2 8.2-5.9zm-19-40.7c1.3-2.9 3.2-4.6 5.5-4.6 2.4-.1 4 2 4.8 3.2 2.1 3.5 2.7 9.5-.2 15.4-.5-.1-1.1-.3-1.6-.4-2.7-.4-5.4 0-7.9.9-2.1-2.8-2.8-9.4-.6-14.5zm-1.7 29.5c.7-4.4 4.6-7.4 8.8-6.9 1.9.2 3.6 1.3 4.8 2.9 1.2 1.7 1.8 3.8 1.4 6-.7 4.4-4.6 7.4-8.8 6.9-1.9-.2-3.6-1.3-4.8-2.9-1.3-1.7-1.8-3.8-1.4-6zm-6 11.5c.7.9 1.3 1.7 2.1 2.4 1.5 1.5 3.4 2.5 5.4 3.2 0 4.1-4 9.9-8.5 12.4-3.8 2.1-5.9.6-6.5.1-2.1-1.5-2-4.6-1.8-5.9.5-4.1 3.6-9.3 9.3-12.2zm-19.7-19c.7-3 3.9-4 5.2-4.4 3.5-.9 9-.2 13.7 4.2-1.1 1.9-1.9 4-2.3 6.2-.2 1.1-.2 2.3-.2 3.3h-.1c-3.4 1.6-9.8.4-13.5-2.7-2.5-1.9-3.4-4.1-2.8-6.6zM44.9 346h353.8v218.5l-58.8-.5h-.1c-1.6 0-3.1.7-4.3 1.8-1.2 1.2-1.8 2.6-1.8 4.2v59H44.8l.1-283zm344.3 230.5l-43.5 43.2v-43.5l43.5.3zm37.7-178c-3.2 3.8-8.5 8.7-16.2 11.8V399c5-1 10.4-1.4 16.2-.5zm10.4-53.2c-3.2 9.6-12.2 16.8-18.5 20.9 1.8-19.5 12.4-30.9 18.4-36 1.7 5.2 1.7 10.1.1 15.1zm70.7 5.5c-6.4 4.3-20 9.4-43.6 1.5 9.4-4 25.7-8.4 43.6-1.5zm-21-28.3c.9-9 5.4-23.3 23.8-34.9-.3 6.4-4 18.4-23.8 34.9zm41-4.5c6.3-5.8 19.8-14.9 39.9-12.1-5.7 7.5-18.7 19.3-39.9 12.1z"/><path class="st0" d="M181 257.7s0-.1 0 0c14.2 6.5 24.5 20.4 29.9 29.1h-42.2c-3.3 0-6 2.7-6 6s2.7 6 6 6h106.2c3.3 0 6-2.7 6-6s-2.7-6-6-6h-5.7c5.1-12.6 5.6-19.2 5.7-20.7 2.9-.9 5.4-2.9 7.4-5.9 1.2-2 2.1-4.3 2.6-6.6 2.5 1.2 5.1 2 7.9 2.1 5.1.1 9.3-2.3 11.5-6.2 2.4-4.3 1.9-9.3-1.3-13.8-1.6-2.3-3.8-4.1-6.2-5.6 2.4-2.1 4.3-4.8 5.2-7.8 1.6-4.8.7-9.6-2.4-12.9-3.4-3.5-8.4-4.6-13.5-3-2.3.7-4.5 2-6.5 3.5-1.2-2.6-2.9-4.9-5.1-6.8-3.9-3.2-8.7-4-12.9-2.3-4.6 1.9-7.3 6.2-7.6 11.6-.1 3.2.5 6.5 1.8 9.5-3.7.2-7.3 1.5-10.1 3.6-4 3-6 7.5-5.2 12 .4 2.7 1.8 5.1 3.8 7 1.5 1.4 3.5 2.4 5.7 3.2 2.9.9 6 1 8.9.5-.6 3.4-.4 6.8.9 9.9.9 2.1 2.1 4 3.6 5.4.7.7 1.5 1.2 2.4 1.6-.1.2-.1.4-.1.7 0 .1-.4 6.8-6.5 21h-30.8c8.8-24.3 10.9-44.7 9.8-60.4 10.7-14.8 15.7-25.5 17.8-30.5 5.1 1 10.5-.4 14.3-4.5 5.6-6.2 5.2-15.7-1-21.4-6.2-5.7-15.7-5.2-21.4.9-5.3 5.8-5.1 14.6.1 20.4-1.1 2.9-4.3 10.5-11.5 21.5-2.9-14.8-7.8-23-8.4-24 7.1-8.1 6.5-20.4-1.5-27.7-8-7.4-20.7-6.8-28 1.3-7.4 8.1-6.9 20.7 1.2 28 5.8 5.3 14 6.5 20.8 3.7 1.3 2.4 6.9 13.9 8.2 32.9-10.4-10.2-24.6-17.5-26-18.2.1-5-1.7-10-5.7-13.6-7.2-6.6-18.5-6.1-25.1 1.1-6.6 7.2-6.1 18.5 1.1 25.1 7.2 6.6 18.5 6.1 25.1-1.1.7-.8 1.3-1.6 1.8-2.5 7.6 4 23.7 14.1 28.7 24.1-.7 11.6-3.1 25.2-8.4 40.5-10.2-19.3-33.4-32.1-35.3-33.1.7-4.9-1-9.9-4.8-13.5-6.2-5.7-16-5.2-21.8 1-5.8 6.3-5.4 16.1.9 21.8 6.1 5.9 15.9 5.4 21.7-.9zm114.4-16.6c1.6 2.3 1 3.6.7 4-.7 1.3-2.6 1.5-3.3 1.4-2.4 0-5.7-1.3-8.2-4.6 1.4-1.5 2.4-3.3 3-5.4 2.4.1 5.9 1.9 7.8 4.6zm-6.5-25.8c2.7-.9 3.7.2 4 .6 1 1.1.6 2.9.4 3.6-.7 2.2-2.9 4.9-6.8 6.2-.5-1-1.2-1.9-2-2.7-.7-.7-1.5-1.4-2.3-2 .9-2.1 3.6-4.8 6.7-5.7zm-36.2 23.6c-2.7-.8-2.9-2.3-3-2.7-.2-1.5 1.2-2.7 1.8-3.2 1.8-1.4 5.2-2.4 9.1-1.3 0 .1-.1.4-.1.5-.1 2 .4 3.9 1 5.7-1.8 1.2-5.7 1.9-8.8 1zm21.7 16.4c-1.5 2.4-3 2.2-3.5 2.1-1.5-.2-2.3-1.8-2.6-2.6-.9-2.2-1-5.8 1.3-9.3 1.3.5 2.8.8 4.3.9.6 0 1.2-.1 1.7-.1.9 2.1.6 6.2-1.2 9zm.2-27.5c1.2.1 2.4.6 3.3 1.5.9.9 1.3 2.1 1.3 3.4-.1 2.6-2.3 4.6-4.9 4.6-2.6-.1-4.6-2.3-4.6-4.9.1-2.6 2.3-4.7 4.9-4.6zM263.3 213c.1-2.8 1.5-3.4 2-3.6 1.3-.5 2.9.5 3.5 1 1.8 1.5 3.5 4.5 3.5 8.4-2.1.4-4 1.2-5.7 2.4-1.9-1.5-3.5-5-3.3-8.2zm-8.8-36c2.2-2.4 6-2.6 8.4-.3 2.4 2.2 2.6 6 .4 8.4-2.2 2.4-6 2.5-8.4.3s-2.6-6-.4-8.4zm-33.7 5.9c-4 4.3-10.7 4.6-15.1.7-4.3-4-4.6-10.7-.6-15.1 4-4.3 10.7-4.6 15.1-.7 4.3 4 4.6 10.7.6 15.1zM191.3 214c-3.2 3.5-8.6 3.7-12.1.5s-3.7-8.6-.5-12.1 8.6-3.7 12.1-.5c3.4 3.2 3.6 8.6.5 12.1zm-26.2 29.1c2.4-2.6 6.3-2.8 8.8-.5s2.6 6.2.2 8.8c-2.4 2.6-6.3 2.8-8.8.5-2.4-2.2-2.6-6.2-.2-8.8z"/><path class="st0" d="M324 239.5c3.4 3.1 6.6 5.2 8.7 6.3-2.7 6.5-6.2 14-10.4 22.1-3.2-2.9-7.4-4.8-12-4.8-9.8 0-17.8 8-17.8 17.8v23.6c0 9.8 8 17.8 17.8 17.8s17.8-8 17.8-17.8V281c0-.9-.1-1.8-.2-2.6 42.6-.2 46.6-34.9 46.7-35.3.1-1.3-.3-2.6-1.2-3.7s-2.3-1.5-3.6-1.4c-11.5.7-20.7 4.9-28 10.2 7.9-19.5 9.9-32.6 10.3-39.5 9.6-10.2 14.5-20.8 14.3-31.6-.2-14.9-10.1-24.5-10.5-24.9-1-.9-2.3-1.4-3.6-1.2-1.3.1-2.5.8-3.3 1.8-21.8 29.4-11.2 48.2-6 54.5-.1 3-.6 8.2-2.4 15.5-4.6-25.7-21.5-32.8-22.4-33.2-1.2-.5-2.6-.4-3.8.1-1.2.6-2.1 1.6-2.4 2.9-6.7 23.9 3.3 38.9 12 46.9zm-8 65.1c0 3.2-2.6 5.8-5.8 5.8s-5.8-2.6-5.8-5.8V281c0-3.2 2.6-5.8 5.8-5.8s5.8 2.6 5.8 5.8v23.6zm36.8-141.3c4 6.5 8.5 19.6-4.5 35.7h-.1c-3.4-5.5-7.1-17.3 4.6-35.7zm11 84.8c-2.7 7.2-10.1 18.5-29.4 20.7 5-7 14.7-17.5 29.4-20.7zm-44.4-46.6c5.1 4.5 12.4 14.1 12.9 33.2-6.5-5.1-15.5-15.5-12.9-33.2zM210 410.9h23.6c3.3 0 6-2.7 6-6v-23.6c0-3.3-2.7-6-6-6H210c-3.3 0-6 2.7-6 6v23.6c0 3.3 2.6 6 6 6zm6-23.6h11.6v11.6H216v-11.6zM292.5 375.3h-23.6c-3.3 0-6 2.7-6 6v23.6c0 3.3 2.7 6 6 6h23.6c3.3 0 6-2.7 6-6v-23.6c0-3.3-2.6-6-6-6zm-6 23.6h-11.6v-11.6h11.6v11.6zM327.9 410.9h23.6c3.3 0 6-2.7 6-6v-23.6c0-3.3-2.7-6-6-6h-23.6c-3.3 0-6 2.7-6 6v23.6c0 3.3 2.7 6 6 6zm6-23.6h11.6v11.6h-11.6v-11.6zM115.6 434.3H92c-3.3 0-6 2.7-6 6v23.6c0 3.3 2.7 6 6 6h23.6c3.3 0 6-2.7 6-6v-23.6c0-3.3-2.7-6-6-6zm-6 23.6H98v-11.6h11.6v11.6zM174.6 434.3H151c-3.3 0-6 2.7-6 6v23.6c0 3.3 2.7 6 6 6h23.6c3.3 0 6-2.7 6-6v-23.6c0-3.3-2.7-6-6-6zm-6 23.6H157v-11.6h11.6v11.6zM233.6 528.5c3.3 0 6-2.7 6-6v-23.6c0-3.3-2.7-6-6-6H210c-3.3 0-6 2.7-6 6v23.6c0 3.3 2.7 6 6 6h23.6zM216 504.9h11.6v11.6H216v-11.6zM327.9 469.9h23.6c3.3 0 6-2.7 6-6v-23.6c0-3.3-2.7-6-6-6h-23.6c-3.3 0-6 2.7-6 6v23.6c0 3.3 2.7 6 6 6zm6-23.6h11.6v11.6h-11.6v-11.6zM292.5 434.3h-23.6c-3.3 0-6 2.7-6 6v23.6c0 3.3 2.7 6 6 6h23.6c3.3 0 6-2.7 6-6v-23.6c0-3.3-2.6-6-6-6zm-6 23.6h-11.6v-11.6h11.6v11.6zM115.6 493.3H92c-3.3 0-6 2.7-6 6v23.6c0 3.3 2.7 6 6 6h23.6c3.3 0 6-2.7 6-6v-23.6c0-3.3-2.7-6-6-6zm-6 23.6H98v-11.6h11.6v11.6zM174.6 493.3H151c-3.3 0-6 2.7-6 6v23.6c0 3.3 2.7 6 6 6h23.6c3.3 0 6-2.7 6-6v-23.6c0-3.3-2.7-6-6-6zm-6 23.6H157v-11.6h11.6v11.6zM292.5 493.3h-23.6c-3.3 0-6 2.7-6 6v23.6c0 3.3 2.7 6 6 6h23.6c3.3 0 6-2.7 6-6v-23.6c0-3.3-2.6-6-6-6zm-6 23.6h-11.6v-11.6h11.6v11.6zM351.5 528.9c3.3 0 6-2.7 6-6v-23.6c0-3.3-2.7-6-6-6h-23.6c-3.3 0-6 2.7-6 6v23.6c0 3.3 2.7 6 6 6h23.6zm-17.6-23.6h11.6v11.6h-11.6v-11.6zM115.6 552.3H92c-3.3 0-6 2.7-6 6v23.6c0 3.3 2.7 6 6 6h23.6c3.3 0 6-2.7 6-6v-23.6c0-3.3-2.7-6-6-6zm-6 23.6H98v-11.6h11.6v11.6zM174.6 552.3H151c-3.3 0-6 2.7-6 6v23.6c0 3.3 2.7 6 6 6h23.6c3.3 0 6-2.7 6-6v-23.6c0-3.3-2.7-6-6-6zm-6 23.6H157v-11.6h11.6v11.6zM292.5 552.3h-23.6c-3.3 0-6 2.7-6 6v23.6c0 3.3 2.7 6 6 6h23.6c3.3 0 6-2.7 6-6v-23.6c0-3.3-2.6-6-6-6zm-6 23.6h-11.6v-11.6h11.6v11.6zM103.8 405c6.5 0 11.9-5.4 11.9-11.9s-5.4-11.9-11.9-11.9-11.9 5.4-11.9 11.9 5.3 11.9 11.9 11.9zm5.9-11.9l-5.9.1c-.1 0-.1-.1-.1-.1h6zM162.8 405c6.5 0 11.9-5.4 11.9-11.9s-5.4-11.9-11.9-11.9-11.9 5.4-11.9 11.9 5.3 11.9 11.9 11.9zm5.9-11.9l-5.9.1c-.1 0-.1-.1-.1-.1h6zM133.3 322.4c9.8 0 17.8-8 17.8-17.8V281c0-9.8-8-17.8-17.8-17.8s-17.8 8-17.8 17.8v23.6c0 9.8 7.9 17.8 17.8 17.8zm-5.8-41.4c0-3.2 2.6-5.8 5.8-5.8s5.8 2.6 5.8 5.8v23.6c0 3.2-2.6 5.8-5.8 5.8s-5.8-2.6-5.8-5.8V281zM234.7 430.4L214 458l-4.5-9c-1.5-2.9-5.1-4.1-8-2.7-2.9 1.5-4.1 5.1-2.7 8l8.8 17.7c1 1.8 2.7 3.1 4.9 3.3h.5c1.9 0 3.7-.9 4.8-2.4l26.5-35.4c2-2.6 1.5-6.4-1.2-8.4-2.7-1.9-6.5-1.4-8.4 1.3zM234.7 548.4L214 576l-4.5-9c-1.5-3-5.1-4.1-8-2.7-2.9 1.5-4.1 5.1-2.7 8l8.8 17.7c1 1.8 2.7 3.1 4.9 3.3h.5c1.9 0 3.7-.9 4.8-2.4l26.5-35.4c2-2.6 1.5-6.4-1.2-8.4-2.7-1.9-6.5-1.4-8.4 1.3z"/></svg>